<?xml version="1.0" standalone="no"?>
<!DOCTYPE svg PUBLIC "-//W3C//DTD SVG 20010904//EN"
 "http://www.w3.org/TR/2001/REC-SVG-20010904/DTD/svg10.dtd">
<svg version="1.0" xmlns="http://www.w3.org/2000/svg"
 width="700.000000pt" height="700.000000pt" viewBox="0 0 700.000000 700.000000"
 preserveAspectRatio="xMidYMid meet">
<metadata>
Created by potrace 1.14, written by Peter Selinger 2001-2017
</metadata>
<g transform="translate(0.000000,700.000000) scale(0.100000,-0.100000)"
fill="#000000" stroke="none">
<path d="M2330 6987 c-88 -41 -133 -107 -133 -197 0 -60 21 -112 59 -146 l24
-21 -73 -29 c-177 -71 -438 -210 -612 -327 -503 -339 -918 -816 -1175 -1352
-34 -71 -66 -139 -70 -150 -4 -11 -15 -36 -23 -55 -82 -197 -169 -503 -201
-710 -3 -19 -7 -44 -10 -55 -2 -11 -7 -45 -10 -75 -4 -30 -9 -71 -11 -90 -24
-194 -22 -514 6 -755 12 -109 13 -117 43 -283 13 -70 76 -302 110 -405 170
-512 485 -1011 872 -1378 37 -35 79 -74 92 -87 13 -12 74 -63 135 -113 298
-241 627 -426 1002 -563 142 -51 407 -122 535 -141 25 -4 54 -9 65 -11 11 -3
43 -7 70 -10 28 -3 55 -7 62 -9 79 -27 661 -26 843 1 313 46 518 98 780 196
858 321 1572 1004 1936 1853 102 237 195 550 228 770 4 22 9 51 11 65 39 230
48 642 20 870 -2 14 -6 50 -10 80 -7 69 -41 259 -54 308 -6 20 -12 49 -15 63
-9 56 -80 293 -104 349 -6 14 -25 63 -42 110 -63 168 -215 459 -332 634 -37
54 -175 243 -188 256 -3 3 -34 39 -69 80 -339 396 -793 723 -1298 934 -131 55
-425 147 -546 172 -61 12 -248 44 -292 50 -27 3 -57 8 -67 9 -44 9 -248 19
-378 19 -161 0 -368 -12 -466 -28 -16 -2 -49 -7 -74 -11 -58 -8 -280 -54 -322
-66 -42 -12 -51 -11 -43 1 14 23 6 102 -15 144 -44 93 -173 143 -260 103z"/>
</g>
</svg>
