<svg width="27" height="24" viewBox="0 0 27 24" fill="none" xmlns="http://www.w3.org/2000/svg">
<path d="M20.5783 9.86926e-05C20.3283 -0.0021333 20.1051 0.156348 20.027 0.395186L17.1855 9.14292H9.10071L6.2592 0.395186C6.18331 0.165277 5.97126 0.00679524 5.72795 9.86926e-05C5.48465 -0.00436529 5.2659 0.142955 5.17885 0.370633L1.75476 9.50899C1.75252 9.50899 1.75252 9.51122 1.75029 9.51345L0.036013 14.0849C-0.0532724 14.3259 0.0270844 14.596 0.236905 14.7478L12.8038 23.8862L12.806 23.8906C12.8083 23.8906 12.8083 23.8906 12.8083 23.8929C12.815 23.8973 12.8239 23.9018 12.8306 23.9062C12.8395 23.9107 12.8462 23.9174 12.8552 23.9219C12.8574 23.9219 12.8574 23.9241 12.8596 23.9241C12.8596 23.9241 12.8619 23.9263 12.8641 23.9263C12.8663 23.9286 12.8685 23.9308 12.873 23.9308C12.8752 23.933 12.8797 23.9353 12.8819 23.9375C12.8931 23.942 12.9065 23.9487 12.9199 23.9531C12.9199 23.9531 12.9199 23.9531 12.9199 23.9554C12.9333 23.9598 12.9467 23.9643 12.9578 23.9688C12.9601 23.9688 12.9601 23.9688 12.9623 23.971C12.9712 23.9732 12.9802 23.9754 12.9913 23.9799C12.9958 23.9799 13.0002 23.9821 13.0069 23.9821C13.0069 23.9844 13.0069 23.9844 13.0069 23.9821C13.0181 23.9866 13.0293 23.9888 13.0404 23.9911C13.056 23.9933 13.0694 23.9955 13.0851 23.9978C13.1074 23.9978 13.1319 24 13.1543 24C13.1766 23.9978 13.1967 23.9978 13.2168 23.9933C13.2257 23.9933 13.2324 23.9933 13.2413 23.9911C13.2413 23.9911 13.2435 23.9911 13.2458 23.9911C13.2502 23.9888 13.2525 23.9888 13.2569 23.9888C13.2592 23.9888 13.2614 23.9866 13.2659 23.9866C13.2703 23.9844 13.277 23.9844 13.2815 23.9821C13.2904 23.9799 13.2971 23.9777 13.3038 23.9754C13.3083 23.9754 13.3105 23.9754 13.3127 23.9732C13.315 23.9732 13.3172 23.9732 13.3194 23.9732C13.3284 23.9688 13.3395 23.9643 13.3485 23.9621C13.3596 23.9576 13.3685 23.9531 13.3775 23.9487C13.3797 23.9487 13.3797 23.9487 13.3819 23.9464C13.3842 23.9464 13.3864 23.9464 13.3886 23.9442C13.3931 23.942 13.3976 23.9397 13.402 23.9375C13.4154 23.9308 13.4266 23.9241 13.4377 23.9174C13.4422 23.9152 13.4444 23.9129 13.4467 23.9107C13.4489 23.9107 13.4511 23.9085 13.4534 23.9085C13.4623 23.9018 13.4712 23.8973 13.4802 23.8906L13.4846 23.8839L26.0515 14.7478C26.2591 14.596 26.3395 14.3259 26.2502 14.0849L24.5404 9.52908C24.5381 9.52461 24.5359 9.51792 24.5359 9.51345L21.1074 0.370633C21.0225 0.149652 20.8149 0.00233068 20.5783 9.86926e-05ZM3.4668 10.2858H8.27035L11.6163 20.5804L3.4668 10.2858ZM18.0159 10.2858H22.8194L14.6699 20.5804L18.0159 10.2858ZM2.46457 10.8617L10.1074 20.5156L1.25922 14.0804L2.46457 10.8617ZM23.8216 10.8617L25.027 14.0804L16.1788 20.5156L23.8216 10.8617Z" fill="black"/>
</svg>
