<svg width="30" height="20" viewBox="0 0 30 20" fill="none" xmlns="http://www.w3.org/2000/svg">
<path d="M14.4287 0.661581C12.8759 0.646933 11.7041 0.720175 10.7226 1.22555C10.3198 1.43063 10.0341 1.6943 9.8144 2.00191C9.69722 2.15572 9.58735 2.29488 9.53608 2.61715C9.50679 2.77096 9.48481 3.0273 9.64594 3.30562C9.80708 3.59127 10.1513 3.7817 10.3857 3.81832C10.5615 3.84029 10.935 3.9941 11.0009 4.08199C11.1547 4.30172 11.2133 4.46285 11.2353 4.55074C11.2573 4.63863 11.2499 4.58004 11.2499 4.58004V4.66793C11.2499 4.66793 11.3085 5.59078 11.2719 6.54293C11.2499 7.01168 11.206 7.5024 11.1328 7.83199C11.0595 8.16158 10.8764 8.24215 11.1401 8.08834C10.957 8.1982 11.0229 8.24215 10.7958 8.12496C10.5615 8.0151 9.95356 7.5024 9.15522 6.06686C8.35688 4.62398 7.77827 3.87691 7.64643 3.71578C7.59516 3.5693 7.47065 3.269 7.04585 2.93941C6.49653 2.51461 5.93257 2.50728 5.93257 2.50728L5.8813 2.49996H1.78706C1.78706 2.49996 1.55268 2.50728 1.28169 2.56588C1.01069 2.62447 0.622508 2.69039 0.256298 3.14449H0.248974C-0.124562 3.62057 -0.058644 4.05269 -0.0293471 4.31637C0.007274 4.58736 0.0878404 4.79977 0.0878404 4.79977L0.102489 4.84371L0.124462 4.88766C0.124462 4.88766 3.2519 11.56 6.98726 15.625C10.4956 19.4482 14.5605 19.375 14.5605 19.375H16.8676L16.9189 19.3676C16.9189 19.3676 17.6586 19.4043 18.2812 18.7085C18.5961 18.3496 18.6694 18.0127 18.706 17.7636C18.75 17.5073 18.75 17.3022 18.75 17.3022V17.3608C18.75 17.3608 18.7792 16.8774 18.9111 16.372C18.977 16.123 19.0722 15.874 19.1601 15.7348C19.2041 15.6543 19.2041 15.6762 19.2187 15.6543C19.3798 15.7714 19.6435 16.0424 19.9218 16.3867C20.4931 17.0678 21.1376 18.0127 22.0385 18.6645C22.6904 19.1259 23.3056 19.331 23.7744 19.4043C24.0893 19.4555 24.3164 19.4482 24.4702 19.4336L27.6562 19.375H27.6855C27.6855 19.375 28.3447 19.3603 29.0039 18.9428C29.3261 18.7378 29.6997 18.3642 29.8242 17.8295C29.956 17.2949 29.8095 16.7163 29.5019 16.1816C29.6044 16.3647 29.4799 16.123 29.3847 15.9326C29.2895 15.7421 29.143 15.4858 28.9233 15.1635C28.4985 14.5337 27.7954 13.6474 26.6308 12.5195C26.0815 11.9921 25.7299 11.6992 25.5102 11.4941C25.5761 11.3989 25.5834 11.3916 25.8325 11.0986C26.228 10.6372 26.8066 9.95602 27.539 8.93795C28.4179 7.70748 29.0551 6.70406 29.4653 5.8691C29.8754 5.04146 30.205 4.35299 29.8388 3.50338C29.6411 3.04195 29.2895 2.86617 29.0332 2.75631C28.7695 2.64644 28.5351 2.6025 28.3154 2.56588C27.8833 2.49996 27.5024 2.49996 27.5024 2.49996L23.789 2.52926C23.6791 2.50728 23.2543 2.42672 22.705 2.77828C22.163 3.11519 22.0385 3.47408 22.0092 3.58394C21.9213 3.70846 21.3061 4.58004 20.4492 6.10348C19.5849 7.64156 18.999 8.05904 18.9257 8.09566C18.9038 8.07369 18.9477 8.08102 18.8452 8.02242C18.8012 7.9858 18.7573 7.9565 18.7207 7.561C18.6914 7.16549 18.728 6.54293 18.728 5.81051C18.728 4.2358 18.8671 3.41549 18.7866 2.6318C18.75 2.23629 18.5888 1.75289 18.2373 1.43063C17.8857 1.11568 17.5048 0.998496 17.1093 0.895956C16.4868 0.742148 15.6445 0.67623 14.4287 0.661581ZM14.414 2.53658C15.5493 2.55123 16.3476 2.63912 16.6406 2.71236C16.8896 2.77828 16.9262 2.80758 16.9189 2.79293C16.9189 2.80758 16.9189 2.80025 16.9189 2.82223C16.9482 3.13717 16.853 4.14791 16.853 5.81051C16.853 6.46236 16.8017 7.09225 16.853 7.72213C16.9042 8.35201 17.1313 9.12105 17.7978 9.57516H17.8051C17.7246 9.52389 18.6474 10.2124 19.5263 9.89742C20.4052 9.57516 21.101 8.76949 22.0898 7.019C22.9541 5.46627 23.5913 4.59469 23.5913 4.59469L23.6499 4.5068L23.6938 4.41891C23.6938 4.41891 23.6791 4.41158 23.6938 4.40426L27.5024 4.37496C27.5024 4.37496 27.7661 4.37496 28.0224 4.41891C28.0297 4.41891 28.0371 4.41891 28.0444 4.41891C28.0078 4.43355 28.0371 4.52877 27.7807 5.04879C27.4511 5.71529 26.8579 6.66744 26.0156 7.84664C25.3198 8.80611 24.7998 9.42867 24.4116 9.88277C24.0234 10.3295 23.7304 10.542 23.54 11.1279C23.4448 11.4135 23.4667 11.8383 23.6059 12.124C23.7377 12.4023 23.8989 12.5561 24.06 12.7099C24.3823 13.0175 24.7631 13.3178 25.3198 13.8671C26.4111 14.9218 27.0263 15.6982 27.3706 16.2109C27.5463 16.4746 27.6489 16.6577 27.7148 16.7895C27.7807 16.9213 27.7368 16.8701 27.8833 17.1191C28.0078 17.3462 27.9858 17.3755 27.9858 17.3608C27.8613 17.434 27.5463 17.5 27.539 17.5L24.353 17.5586L24.2651 17.5805C24.2651 17.5805 24.2724 17.5879 24.0747 17.5586C23.8696 17.5219 23.5473 17.434 23.1372 17.1411C22.6318 16.7822 21.9946 15.9472 21.3647 15.1855C21.0571 14.812 20.7421 14.4458 20.3466 14.1528C19.9511 13.8598 19.3286 13.5888 18.6914 13.8012C18.142 13.977 17.7832 14.3798 17.5561 14.7534C17.3291 15.1342 17.1972 15.5297 17.0947 15.8886C16.9042 16.6137 16.875 17.2656 16.875 17.2656V17.3242C16.875 17.3242 16.875 17.3681 16.8603 17.434C16.8237 17.4487 16.7724 17.4853 16.7431 17.5H14.5019C14.5019 17.5 11.4038 17.6611 8.36421 14.3652C5.11226 10.8129 2.21919 4.87301 1.97749 4.37496H5.74946C5.78608 4.38961 5.91792 4.44088 5.90327 4.43355C5.81538 4.36031 5.94722 4.52144 5.94722 4.52144L6.00581 4.66061L6.10835 4.77779C6.10835 4.77779 6.68696 5.48092 7.5146 6.97506C8.40083 8.57906 9.1479 9.41402 9.98286 9.81686C10.8178 10.2197 11.6967 9.93404 12.0703 9.72164C12.7661 9.31881 12.8466 8.75484 12.9638 8.23482C13.081 7.7148 13.1176 7.15816 13.1396 6.61617C13.1835 5.57613 13.1249 4.6899 13.1249 4.62398C13.1176 4.60201 13.1176 4.34566 13.0444 4.06734C12.9638 3.7817 12.8173 3.40816 12.539 3.01266C12.4218 2.85152 12.312 2.93209 12.1874 2.8149C12.7075 2.66842 13.2641 2.52193 14.414 2.53658Z" fill="#212121"/>
</svg>
